# WaveFront *.obj file (generated by Autodesk ATF)

mtllib 7e085f14-8d00-4af9-9935-02e7d9e0ee5a.mtl

g Body4

g Body11

v -13.000000 13.000000 0.000000
v -11.626127 11.170439 0.000000
v -10.993668 10.393587 0.000000
v -10.399579 9.713884 0.000000
v -9.846155 9.137140 0.000000
v -9.336129 8.670273 0.000000
v -8.872458 8.320770 0.000000
v -8.458047 8.095986 0.000000
v -8.270110 8.032378 0.000000
v -8.095341 8.002112 0.000000
v -7.933895 8.005578 0.000000
v -7.785840 8.042947 0.000000
v -7.651151 8.114157 0.000000
v -7.529720 8.218934 0.000000
v -7.421380 8.356857 0.000000
v -7.325926 8.527406 0.000000
v -7.172766 8.964074 0.000000
v -7.068397 9.524273 0.000000
v -7.011183 10.203865 0.000000
v -7.000000 11.000000 0.000000
v -7.000000 11.000000 0.200000
v -7.011183 10.203865 0.200000
v -7.068397 9.524273 0.200000
v -7.172766 8.964074 0.200000
v -7.325926 8.527406 0.200000
v -7.421380 8.356857 0.200000
v -7.529720 8.218934 0.200000
v -7.651151 8.114157 0.200000
v -7.785840 8.042947 0.200000
v -7.933895 8.005578 0.200000
v -8.095341 8.002112 0.200000
v -8.270110 8.032378 0.200000
v -8.458047 8.095986 0.200000
v -8.872458 8.320770 0.200000
v -9.336129 8.670273 0.200000
v -9.846155 9.137140 0.200000
v -10.399579 9.713884 0.200000
v -10.993668 10.393587 0.200000
v -11.626127 11.170439 0.200000
v -13.000000 13.000000 0.200000
v -22.083577 21.543257 0.000000
v -22.071887 21.301106 0.000000
v -22.019305 21.060003 0.000000
v -21.797574 20.577493 0.000000
v -21.433903 20.087491 0.000000
v -20.948308 19.580489 0.000000
v -19.705007 18.480100 0.000000
v -18.260830 17.233126 0.000000
v -15.389400 14.558793 0.000000
v -14.738646 13.986885 0.000000
v -14.123320 13.515825 0.000000
v -13.543963 13.177321 0.000000
v -13.267620 13.066904 0.000000
v -13.267620 13.066904 0.200000
v -13.543963 13.177321 0.200000
v -14.123320 13.515825 0.200000
v -14.738646 13.986885 0.200000
v -15.389400 14.558793 0.200000
v -18.260830 17.233126 0.200000
v -19.705007 18.480100 0.200000
v -20.948308 19.580489 0.200000
v -21.433903 20.087491 0.200000
v -21.797574 20.577493 0.200000
v -22.019305 21.060003 0.200000
v -22.071887 21.301106 0.200000
v -22.083577 21.543257 0.200000
v -20.000009 28.999873 0.000000
v -20.237201 26.831830 0.000000
v -20.652687 24.854768 0.000000
v -21.273446 23.097589 0.000000
v -21.273446 23.097589 0.200000
v -20.652687 24.854768 0.200000
v -20.237201 26.831830 0.200000
v -20.000009 28.999873 0.200000
v -20.000005 28.999998 0.000000
v -20.000005 28.999998 0.200000
v -20.000000 56.000001 0.000000
v -20.000000 56.000001 0.200000
v -7.000000 56.000001 0.000000
v -7.000000 56.000001 0.200000
vt -0.672845 0.000000 0.000000
vt -0.588739 0.000000 0.000000
vt -0.672845 0.020000 0.000000
vt -0.588739 0.020000 0.000000
vt -0.546686 0.000000 0.000000
vt -0.546686 0.020000 0.000000
vt -0.504633 0.000000 0.000000
vt -0.504633 0.020000 0.000000
vt -0.462581 0.000000 0.000000
vt -0.462581 0.020000 0.000000
vt -0.420528 0.000000 0.000000
vt -0.420528 0.020000 0.000000
vt -0.378475 0.000000 0.000000
vt -0.378475 0.020000 0.000000
vt -0.336422 0.000000 0.000000
vt -0.336422 0.020000 0.000000
vt -0.315396 0.000000 0.000000
vt -0.315396 0.020000 0.000000
vt -0.294370 0.000000 0.000000
vt -0.294370 0.020000 0.000000
vt -0.273343 0.000000 0.000000
vt -0.273343 0.020000 0.000000
vt -0.252317 0.000000 0.000000
vt -0.252317 0.020000 0.000000
vt -0.231290 0.000000 0.000000
vt -0.231290 0.020000 0.000000
vt -0.210264 0.000000 0.000000
vt -0.210264 0.020000 0.000000
vt -0.189238 0.000000 0.000000
vt -0.189238 0.020000 0.000000
vt -0.168211 0.000000 0.000000
vt -0.168211 0.020000 0.000000
vt -0.126158 0.000000 0.000000
vt -0.126158 0.020000 0.000000
vt -0.084106 0.000000 0.000000
vt -0.084106 0.020000 0.000000
vt -0.042053 0.000000 0.000000
vt -0.042053 0.020000 0.000000
vt 0.000000 0.000000 0.000000
vt 0.000000 0.020000 0.000000
vt 0.475075 0.000000 0.000000
vt 0.524680 0.000000 0.000000
vt 0.475075 0.020000 0.000000
vt 0.524680 0.020000 0.000000
vt 0.574286 0.000000 0.000000
vt 0.574286 0.020000 0.000000
vt 0.673497 0.000000 0.000000
vt 0.673497 0.020000 0.000000
vt 0.772708 0.000000 0.000000
vt 0.772708 0.020000 0.000000
vt 0.871919 0.000000 0.000000
vt 0.871919 0.020000 0.000000
vt 1.070341 0.000000 0.000000
vt 1.070341 0.020000 0.000000
vt 1.268764 0.000000 0.000000
vt 1.268764 0.020000 0.000000
vt 1.665608 0.000000 0.000000
vt 1.665608 0.020000 0.000000
vt 1.764819 0.000000 0.000000
vt 1.764819 0.020000 0.000000
vt 1.864030 0.000000 0.000000
vt 1.864030 0.020000 0.000000
vt 1.963241 0.000000 0.000000
vt 1.963241 0.020000 0.000000
vt 2.012847 0.000000 0.000000
vt 2.012847 0.020000 0.000000
vt 2.062452 0.000000 0.000000
vt 2.062452 0.020000 0.000000
vt 0.000011 0.000000 0.000000
vt 0.193887 0.000000 0.000000
vt 0.000011 0.020000 0.000000
vt 0.193887 0.020000 0.000000
vt 0.387762 0.000000 0.000000
vt 0.387762 0.020000 0.000000
vt 0.581638 0.000000 0.000000
vt 0.581638 0.020000 0.000000
vt 0.775513 0.000000 0.000000
vt 0.775513 0.020000 0.000000
vt -0.000000 0.000000 0.000000
vt 0.000012 0.000000 0.000000
vt -0.000000 0.020000 0.000000
vt 0.000012 0.020000 0.000000
vt 0.000000 0.000000 0.000000
vt 2.700000 0.000000 0.000000
vt 0.000000 0.020000 0.000000
vt 2.700000 0.020000 0.000000
vt 0.000000 0.000000 0.000000
vt 1.300000 0.000000 0.000000
vt 0.000000 0.020000 0.000000
vt 1.300000 0.020000 0.000000
vt 0.000000 0.000000 0.000000
vt 4.500000 0.000000 0.000000
vt 0.000000 0.020000 0.000000
vt 4.500000 0.020000 0.000000
vt 0.754146 2.403871 0.000000
vt 0.291533 -2.079085 0.000000
vt 0.754146 -2.096129 0.000000
vt 0.354779 -2.156770 0.000000
vt 0.414188 -2.224741 0.000000
vt -0.545854 2.403871 0.000000
vt -0.545855 -0.296129 0.000000
vt -0.019719 -1.797440 0.000000
vt 0.041814 -1.844546 0.000000
vt -0.545855 -0.296142 0.000000
vt -0.371937 -1.472816 0.000000
vt -0.084794 -1.740250 0.000000
vt -0.569575 -0.512946 0.000000
vt -0.516355 -1.348119 0.000000
vt -0.611123 -0.710652 0.000000
vt -0.640685 -1.238080 0.000000
vt -0.673199 -0.886370 0.000000
vt -0.689245 -1.187380 0.000000
vt -0.725612 -1.138380 0.000000
vt -0.754212 -1.041803 0.000000
vt -0.747785 -1.090129 0.000000
vt -0.753043 -1.066018 0.000000
vt 0.099749 -1.878397 0.000000
vt 0.127384 -1.889439 0.000000
vt 0.154146 -1.896129 0.000000
vt 0.469530 -2.282415 0.000000
vt 0.520533 -2.329102 0.000000
vt 0.566900 -2.364052 0.000000
vt 0.608341 -2.386530 0.000000
vt 0.627135 -2.392891 0.000000
vt 0.644611 -2.395918 0.000000
vt 0.660756 -2.395571 0.000000
vt 0.675562 -2.391834 0.000000
vt 0.689030 -2.384713 0.000000
vt 0.753027 -2.175743 0.000000
vt 0.701174 -2.374236 0.000000
vt 0.712008 -2.360443 0.000000
vt 0.721553 -2.343388 0.000000
vt 0.747306 -2.243702 0.000000
vt 0.736869 -2.299722 0.000000
vt -0.754146 -2.096129 0.000000
vt -0.291533 -2.079085 0.000000
vt -0.754146 2.403871 0.000000
vt -0.154146 -1.896129 0.000000
vt -0.127384 -1.889439 0.000000
vt -0.753027 -2.175743 0.000000
vt -0.689030 -2.384713 0.000000
vt -0.675562 -2.391834 0.000000
vt -0.660756 -2.395571 0.000000
vt -0.747306 -2.243702 0.000000
vt -0.721553 -2.343388 0.000000
vt -0.712008 -2.360443 0.000000
vt -0.701174 -2.374236 0.000000
vt -0.736869 -2.299722 0.000000
vt -0.644611 -2.395918 0.000000
vt -0.627135 -2.392891 0.000000
vt -0.608341 -2.386530 0.000000
vt -0.566900 -2.364052 0.000000
vt -0.520533 -2.329102 0.000000
vt -0.469530 -2.282415 0.000000
vt -0.414188 -2.224741 0.000000
vt -0.354779 -2.156770 0.000000
vt -0.099749 -1.878397 0.000000
vt -0.041814 -1.844546 0.000000
vt 0.019719 -1.797440 0.000000
vt 0.545855 -0.296129 0.000000
vt 0.084794 -1.740250 0.000000
vt 0.371937 -1.472816 0.000000
vt 0.516355 -1.348119 0.000000
vt 0.569575 -0.512946 0.000000
vt 0.545855 -0.296142 0.000000
vt 0.611123 -0.710652 0.000000
vt 0.640685 -1.238080 0.000000
vt 0.673199 -0.886370 0.000000
vt 0.689245 -1.187380 0.000000
vt 0.725612 -1.138380 0.000000
vt 0.754212 -1.041803 0.000000
vt 0.747785 -1.090129 0.000000
vt 0.753043 -1.066018 0.000000
vt 0.545854 2.403871 0.000000
vn -0.081187 -0.058384 0.000000
vn -0.078460 -0.062000 0.000000
vn -0.081187 -0.058384 0.000000
vn -0.078460 -0.062000 0.000000
vn -0.076511 -0.064389 0.000000
vn -0.076511 -0.064389 0.000000
vn -0.073872 -0.067402 0.000000
vn -0.073872 -0.067402 0.000000
vn -0.070093 -0.071323 0.000000
vn -0.070093 -0.071323 0.000000
vn -0.064326 -0.076565 0.000000
vn -0.064326 -0.076565 0.000000
vn -0.054851 -0.083614 0.000000
vn -0.054851 -0.083614 0.000000
vn -0.038088 -0.092462 0.000000
vn -0.038088 -0.092462 0.000000
vn -0.025093 -0.096801 0.000000
vn -0.025093 -0.096801 0.000000
vn -0.007973 -0.099682 0.000000
vn -0.007973 -0.099682 0.000000
vn 0.013074 -0.099142 0.000000
vn 0.013074 -0.099142 0.000000
vn 0.035869 -0.093346 0.000000
vn 0.035869 -0.093346 0.000000
vn 0.056665 -0.082396 0.000000
vn 0.056665 -0.082396 0.000000
vn 0.072651 -0.068716 0.000000
vn 0.072651 -0.068716 0.000000
vn 0.083460 -0.055086 0.000000
vn 0.083460 -0.055086 0.000000
vn 0.090250 -0.043069 0.000000
vn 0.090250 -0.043069 0.000000
vn 0.096845 -0.024922 0.000000
vn 0.096845 -0.024922 0.000000
vn 0.099168 -0.012874 0.000000
vn 0.099168 -0.012874 0.000000
vn 0.099894 -0.004610 0.000000
vn 0.099894 -0.004610 0.000000
vn 0.099991 0.001362 0.000000
vn 0.099991 0.001362 0.000000
vn -0.099929 0.003765 0.000000
vn -0.099115 -0.013276 0.000000
vn -0.099929 0.003765 0.000000
vn -0.099115 -0.013276 0.000000
vn -0.095747 -0.028854 0.000000
vn -0.095747 -0.028854 0.000000
vn -0.085369 -0.052078 0.000000
vn -0.085369 -0.052078 0.000000
vn -0.075746 -0.065288 0.000000
vn -0.075746 -0.065288 0.000000
vn -0.069338 -0.072058 0.000000
vn -0.069338 -0.072058 0.000000
vn -0.064835 -0.076134 0.000000
vn -0.064835 -0.076134 0.000000
vn -0.066394 -0.074779 0.000000
vn -0.066394 -0.074779 0.000000
vn -0.067525 -0.073759 0.000000
vn -0.067525 -0.073759 0.000000
vn -0.063961 -0.076870 0.000000
vn -0.063961 -0.076870 0.000000
vn -0.056581 -0.082454 0.000000
vn -0.056581 -0.082454 0.000000
vn -0.042326 -0.090601 0.000000
vn -0.042326 -0.090601 0.000000
vn -0.031151 -0.095024 0.000000
vn -0.031151 -0.095024 0.000000
vn -0.016554 -0.098620 0.000000
vn -0.016554 -0.098620 0.000000
vn -0.099756 0.006983 0.000000
vn -0.098833 0.015231 0.000000
vn -0.099756 0.006983 0.000000
vn -0.098833 0.015231 0.000000
vn -0.096384 0.026649 0.000000
vn -0.096384 0.026649 0.000000
vn -0.091639 0.040028 0.000000
vn -0.091639 0.040028 0.000000
vn -0.085275 0.052231 0.000000
vn -0.085275 0.052231 0.000000
vn -0.099756 0.006983 0.000000
vn -0.099756 0.006983 0.000000
vn -0.099756 0.006983 0.000000
vn -0.099756 0.006983 0.000000
vn -0.100000 0.000000 0.000000
vn -0.100000 0.000000 0.000000
vn -0.100000 0.000000 0.000000
vn -0.100000 0.000000 0.000000
vn 0.000000 0.100000 0.000000
vn 0.000000 0.100000 0.000000
vn 0.000000 0.100000 0.000000
vn 0.000000 0.100000 0.000000
vn 0.100000 0.000000 0.000000
vn 0.100000 0.000000 0.000000
vn 0.100000 0.000000 0.000000
vn 0.100000 0.000000 0.000000
vn 0.000000 0.000000 0.100000
vn 0.000000 0.000000 0.100000
vn 0.000000 0.000000 0.100000
vn 0.000000 0.000000 0.100000
vn 0.000000 0.000000 0.100000
vn 0.000000 0.000000 0.100000
vn 0.000000 0.000000 0.100000
vn 0.000000 0.000000 0.100000
vn 0.000000 0.000000 0.100000
vn 0.000000 0.000000 0.100000
vn 0.000000 0.000000 0.100000
vn 0.000000 0.000000 0.100000
vn 0.000000 0.000000 0.100000
vn 0.000000 0.000000 0.100000
vn 0.000000 0.000000 0.100000
vn 0.000000 0.000000 0.100000
vn 0.000000 0.000000 0.100000
vn 0.000000 0.000000 0.100000
vn 0.000000 0.000000 0.100000
vn 0.000000 0.000000 0.100000
vn 0.000000 0.000000 0.100000
vn 0.000000 0.000000 0.100000
vn 0.000000 0.000000 0.100000
vn 0.000000 0.000000 0.100000
vn 0.000000 0.000000 0.100000
vn 0.000000 0.000000 0.100000
vn 0.000000 0.000000 0.100000
vn 0.000000 0.000000 0.100000
vn 0.000000 0.000000 0.100000
vn 0.000000 0.000000 0.100000
vn 0.000000 0.000000 0.100000
vn 0.000000 0.000000 0.100000
vn 0.000000 0.000000 0.100000
vn 0.000000 0.000000 0.100000
vn 0.000000 0.000000 0.100000
vn 0.000000 0.000000 0.100000
vn 0.000000 0.000000 0.100000
vn 0.000000 0.000000 0.100000
vn 0.000000 0.000000 0.100000
vn 0.000000 0.000000 0.100000
vn 0.000000 0.000000 -0.100000
vn 0.000000 0.000000 -0.100000
vn 0.000000 0.000000 -0.100000
vn 0.000000 0.000000 -0.100000
vn 0.000000 0.000000 -0.100000
vn 0.000000 0.000000 -0.100000
vn 0.000000 0.000000 -0.100000
vn 0.000000 0.000000 -0.100000
vn 0.000000 0.000000 -0.100000
vn 0.000000 0.000000 -0.100000
vn 0.000000 0.000000 -0.100000
vn 0.000000 0.000000 -0.100000
vn 0.000000 0.000000 -0.100000
vn 0.000000 0.000000 -0.100000
vn 0.000000 0.000000 -0.100000
vn 0.000000 0.000000 -0.100000
vn 0.000000 0.000000 -0.100000
vn 0.000000 0.000000 -0.100000
vn 0.000000 0.000000 -0.100000
vn 0.000000 0.000000 -0.100000
vn 0.000000 0.000000 -0.100000
vn 0.000000 0.000000 -0.100000
vn 0.000000 0.000000 -0.100000
vn 0.000000 0.000000 -0.100000
vn 0.000000 0.000000 -0.100000
vn 0.000000 0.000000 -0.100000
vn 0.000000 0.000000 -0.100000
vn 0.000000 0.000000 -0.100000
vn 0.000000 0.000000 -0.100000
vn 0.000000 0.000000 -0.100000
vn 0.000000 0.000000 -0.100000
vn 0.000000 0.000000 -0.100000
vn 0.000000 0.000000 -0.100000
vn 0.000000 0.000000 -0.100000
vn 0.000000 0.000000 -0.100000
vn 0.000000 0.000000 -0.100000
vn 0.000000 0.000000 -0.100000
vn 0.000000 0.000000 -0.100000
vn 0.000000 0.000000 -0.100000
vn 0.000000 0.000000 -0.100000
usemtl Granite_-_Black_and_White
f 1/1/1 2/2/2 40/3/3
f 40/3/3 2/2/2 39/4/4
f 39/4/4 2/2/2 3/5/5
f 39/4/4 3/5/5 38/6/6
f 38/6/6 3/5/5 4/7/7
f 38/6/6 4/7/7 37/8/8
f 37/8/8 4/7/7 5/9/9
f 37/8/8 5/9/9 36/10/10
f 36/10/10 5/9/9 6/11/11
f 36/10/10 6/11/11 35/12/12
f 35/12/12 6/11/11 7/13/13
f 35/12/12 7/13/13 34/14/14
f 34/14/14 7/13/13 8/15/15
f 34/14/14 8/15/15 33/16/16
f 33/16/16 8/15/15 9/17/17
f 33/16/16 9/17/17 32/18/18
f 32/18/18 9/17/17 10/19/19
f 32/18/18 10/19/19 31/20/20
f 31/20/20 10/19/19 11/21/21
f 31/20/20 11/21/21 30/22/22
f 30/22/22 11/21/21 12/23/23
f 30/22/22 12/23/23 29/24/24
f 29/24/24 12/23/23 13/25/25
f 29/24/24 13/25/25 28/26/26
f 28/26/26 13/25/25 14/27/27
f 28/26/26 14/27/27 27/28/28
f 27/28/28 14/27/27 15/29/29
f 27/28/28 15/29/29 26/30/30
f 26/30/30 15/29/29 16/31/31
f 26/30/30 16/31/31 25/32/32
f 25/32/32 16/31/31 17/33/33
f 25/32/32 17/33/33 24/34/34
f 24/34/34 17/33/33 18/35/35
f 24/34/34 18/35/35 23/36/36
f 23/36/36 18/35/35 19/37/37
f 23/36/36 19/37/37 22/38/38
f 22/38/38 19/37/37 20/39/39
f 22/38/38 20/39/39 21/40/40
f 41/41/41 42/42/42 66/43/43
f 66/43/43 42/42/42 65/44/44
f 65/44/44 42/42/42 43/45/45
f 65/44/44 43/45/45 64/46/46
f 64/46/46 43/45/45 44/47/47
f 64/46/46 44/47/47 63/48/48
f 63/48/48 44/47/47 45/49/49
f 63/48/48 45/49/49 62/50/50
f 62/50/50 45/49/49 46/51/51
f 62/50/50 46/51/51 61/52/52
f 61/52/52 46/51/51 47/53/53
f 61/52/52 47/53/53 60/54/54
f 60/54/54 47/53/53 48/55/55
f 60/54/54 48/55/55 59/56/56
f 59/56/56 48/55/55 49/57/57
f 59/56/56 49/57/57 58/58/58
f 58/58/58 49/57/57 50/59/59
f 58/58/58 50/59/59 57/60/60
f 57/60/60 50/59/59 51/61/61
f 57/60/60 51/61/61 56/62/62
f 56/62/62 51/61/61 52/63/63
f 56/62/62 52/63/63 55/64/64
f 55/64/64 52/63/63 53/65/65
f 55/64/64 53/65/65 54/66/66
f 54/66/66 53/65/65 1/67/67
f 54/66/66 1/67/67 40/68/68
f 67/69/69 68/70/70 74/71/71
f 74/71/71 68/70/70 73/72/72
f 73/72/72 68/70/70 69/73/73
f 73/72/72 69/73/73 72/74/74
f 72/74/74 69/73/73 70/75/75
f 72/74/74 70/75/75 71/76/76
f 71/76/76 70/75/75 41/77/77
f 71/76/76 41/77/77 66/78/78
f 75/79/79 67/80/80 76/81/81
f 76/81/81 67/80/80 74/82/82
f 77/83/83 75/84/84 78/85/85
f 78/85/85 75/84/84 76/86/86
f 79/87/87 77/88/88 80/89/89
f 80/89/89 77/88/88 78/90/90
f 20/91/91 79/92/92 21/93/93
f 21/93/93 79/92/92 80/94/94
f 80/95/95 39/96/96 21/97/97
f 21/97/97 39/96/96 38/98/98
f 21/97/97 38/98/98 37/99/99
f 78/100/100 76/101/101 80/95/95
f 80/95/95 76/101/101 57/102/102
f 80/95/95 57/102/102 56/103/103
f 74/104/104 59/105/105 76/101/101
f 76/101/101 59/105/105 58/106/106
f 76/101/101 58/106/106 57/102/102
f 74/104/104 73/107/107 59/105/105
f 59/105/105 73/107/107 60/108/108
f 60/108/108 73/107/107 72/109/109
f 60/108/108 72/109/109 61/110/110
f 61/110/110 72/109/109 71/111/111
f 61/110/110 71/111/111 62/112/112
f 62/112/112 71/111/111 63/113/113
f 63/113/113 71/111/111 66/114/114
f 63/113/113 66/114/114 64/115/115
f 64/115/115 66/114/114 65/116/116
f 56/103/103 55/117/117 80/95/95
f 80/95/95 55/117/117 54/118/118
f 80/95/95 54/118/118 40/119/119
f 40/119/119 39/96/96 80/95/95
f 37/99/99 36/120/120 21/97/97
f 21/97/97 36/120/120 35/121/121
f 21/97/97 35/121/121 34/122/122
f 34/122/122 33/123/123 21/97/97
f 21/97/97 33/123/123 32/124/124
f 21/97/97 32/124/124 31/125/125
f 31/125/125 30/126/126 21/97/97
f 21/97/97 30/126/126 29/127/127
f 21/97/97 29/127/127 28/128/128
f 21/97/97 28/128/128 22/129/129
f 22/129/129 28/128/128 27/130/130
f 22/129/129 27/130/130 26/131/131
f 26/131/131 25/132/132 22/129/129
f 22/129/129 25/132/132 23/133/133
f 23/133/133 25/132/132 24/134/134
f 20/135/135 2/136/136 79/137/137
f 79/137/137 2/136/136 1/138/138
f 79/137/137 1/138/138 53/139/139
f 19/140/140 13/141/141 20/135/135
f 20/135/135 13/141/141 12/142/142
f 20/135/135 12/142/142 11/143/143
f 18/144/144 16/145/145 19/140/140
f 19/140/140 16/145/145 15/146/146
f 19/140/140 15/146/146 14/147/147
f 18/144/144 17/148/148 16/145/145
f 14/147/147 13/141/141 19/140/140
f 11/143/143 10/149/149 20/135/135
f 20/135/135 10/149/149 9/150/150
f 20/135/135 9/150/150 8/151/151
f 8/151/151 7/152/152 20/135/135
f 20/135/135 7/152/152 6/153/153
f 20/135/135 6/153/153 5/154/154
f 5/154/154 4/155/155 20/135/135
f 20/135/135 4/155/155 3/156/156
f 20/135/135 3/156/156 2/136/136
f 53/139/139 52/157/157 79/137/137
f 79/137/137 52/157/157 51/158/158
f 79/137/137 51/158/158 50/159/159
f 79/137/137 50/159/159 75/160/160
f 75/160/160 50/159/159 49/161/161
f 75/160/160 49/161/161 48/162/162
f 47/163/163 68/164/164 48/162/162
f 48/162/162 68/164/164 67/165/165
f 48/162/162 67/165/165 75/160/160
f 68/164/164 47/163/163 69/166/166
f 69/166/166 47/163/163 46/167/167
f 69/166/166 46/167/167 70/168/168
f 70/168/168 46/167/167 45/169/169
f 70/168/168 45/169/169 44/170/170
f 70/168/168 44/170/170 41/171/171
f 41/171/171 44/170/170 43/172/172
f 41/171/171 43/172/172 42/173/173
f 75/160/160 77/174/174 79/137/137
# 80 vertices
# 174 texture params
# 174 normals
# 156 facets

# 2 groups
