# WaveFront *.obj file (generated by Autodesk ATF)

mtllib 4265affe-a7c8-4471-8165-75509e9b27de.mtl

g Body4

g Body10

v -50.000000 20.000000 0.000000
v -47.308147 20.026386 0.000000
v -45.907627 19.851383 0.000000
v -44.470714 19.549963 0.000000
v -42.997699 19.121498 0.000000
v -41.489298 18.565750 0.000000
v -38.372260 17.075070 0.000000
v -35.139967 15.094838 0.000000
v -31.830592 12.668232 0.000000
v -28.503241 9.870997 0.000000
v -25.233891 6.805312 0.000000
v -22.107879 3.588040 0.000000
v -19.212544 0.339916 0.000000
v -16.629503 -2.825139 0.000000
v -14.426430 -5.810662 0.000000
v -12.648597 -8.548126 0.000000
v -11.926392 -9.811099 0.000000
v -11.316749 -11.000001 0.000000
v -10.819740 -12.113594 0.000000
v -10.434983 -13.151417 0.000000
v -10.161906 -14.113485 0.000000
v -10.000000 -15.000000 0.000000
v -10.000000 -15.000000 0.500000
v -10.161906 -14.113485 0.500000
v -10.434983 -13.151417 0.500000
v -10.819740 -12.113594 0.500000
v -11.316749 -11.000001 0.500000
v -11.926392 -9.811099 0.500000
v -12.648597 -8.548126 0.500000
v -14.426430 -5.810662 0.500000
v -16.629503 -2.825139 0.500000
v -19.212544 0.339916 0.500000
v -22.107879 3.588040 0.500000
v -25.233891 6.805312 0.500000
v -28.503241 9.870997 0.500000
v -31.830592 12.668232 0.500000
v -35.139967 15.094838 0.500000
v -38.372260 17.075070 0.500000
v -41.489298 18.565750 0.500000
v -42.997699 19.121498 0.500000
v -44.470714 19.549963 0.500000
v -45.907627 19.851383 0.500000
v -47.308147 20.026386 0.500000
v -50.000000 20.000000 0.500000
v -41.599554 27.414634 0.000000
v -41.599554 27.414634 0.500000
v -1.000000 -13.000000 0.000000
v -0.703408 -11.864652 0.000000
v -0.579925 -10.677137 0.000000
v -0.629154 -9.437090 0.000000
v -0.848931 -8.143922 0.000000
v -1.233910 -6.796824 0.000000
v -1.774482 -5.394847 0.000000
v -2.457126 -3.937248 0.000000
v -3.266059 -2.424086 0.000000
v -5.199748 0.760699 0.000000
v -7.474583 4.117918 0.000000
v -10.055214 7.557996 0.000000
v -12.957580 10.956919 0.000000
v -16.202597 14.185203 0.000000
v -19.768246 17.137366 0.000000
v -23.563008 19.750729 0.000000
v -27.449045 21.999583 0.000000
v -31.282213 23.881585 0.000000
v -34.951058 25.405166 0.000000
v -38.396789 26.580337 0.000000
v -38.396789 26.580337 0.500000
v -34.951058 25.405166 0.500000
v -31.282213 23.881585 0.500000
v -27.449045 21.999583 0.500000
v -23.563008 19.750729 0.500000
v -19.768246 17.137366 0.500000
v -16.202597 14.185203 0.500000
v -12.957580 10.956919 0.500000
v -10.055214 7.557996 0.500000
v -7.474583 4.117918 0.500000
v -5.199748 0.760699 0.500000
v -3.266059 -2.424086 0.500000
v -2.457126 -3.937248 0.500000
v -1.774482 -5.394847 0.500000
v -1.233910 -6.796824 0.500000
v -0.848931 -8.143922 0.500000
v -0.629154 -9.437090 0.500000
v -0.579925 -10.677137 0.500000
v -0.703408 -11.864652 0.500000
v -1.000000 -13.000000 0.500000
vt -7.211551 0.000000 0.000000
vt -6.760829 0.000000 0.000000
vt -7.211551 0.050000 0.000000
vt -6.760829 0.050000 0.000000
vt -6.535468 0.000000 0.000000
vt -6.535468 0.050000 0.000000
vt -6.310107 0.000000 0.000000
vt -6.310107 0.050000 0.000000
vt -6.084746 0.000000 0.000000
vt -6.084746 0.050000 0.000000
vt -5.859385 0.000000 0.000000
vt -5.859385 0.050000 0.000000
vt -5.408664 0.000000 0.000000
vt -5.408664 0.050000 0.000000
vt -4.957942 0.000000 0.000000
vt -4.957942 0.050000 0.000000
vt -4.507220 0.000000 0.000000
vt -4.507220 0.050000 0.000000
vt -4.056498 0.000000 0.000000
vt -4.056498 0.050000 0.000000
vt -3.605776 0.000000 0.000000
vt -3.605776 0.050000 0.000000
vt -3.155054 0.000000 0.000000
vt -3.155054 0.050000 0.000000
vt -2.704332 0.000000 0.000000
vt -2.704332 0.050000 0.000000
vt -2.253610 0.000000 0.000000
vt -2.253610 0.050000 0.000000
vt -1.802888 0.000000 0.000000
vt -1.802888 0.050000 0.000000
vt -1.352166 0.000000 0.000000
vt -1.352166 0.050000 0.000000
vt -1.126805 0.000000 0.000000
vt -1.126805 0.050000 0.000000
vt -0.901444 0.000000 0.000000
vt -0.901444 0.050000 0.000000
vt -0.676083 0.000000 0.000000
vt -0.676083 0.050000 0.000000
vt -0.450722 0.000000 0.000000
vt -0.450722 0.050000 0.000000
vt -0.225361 0.000000 0.000000
vt -0.225361 0.050000 0.000000
vt 0.000000 0.000000 0.000000
vt 0.000000 0.050000 0.000000
vt -0.000000 0.000000 0.000000
vt 1.120465 0.000000 0.000000
vt 0.000000 0.050000 0.000000
vt 1.120465 0.050000 0.000000
vt 0.000000 0.000000 0.000000
vt 0.226693 0.000000 0.000000
vt 0.000000 0.050000 0.000000
vt 0.226693 0.050000 0.000000
vt 0.453386 0.000000 0.000000
vt 0.453386 0.050000 0.000000
vt 0.680079 0.000000 0.000000
vt 0.680079 0.050000 0.000000
vt 0.906771 0.000000 0.000000
vt 0.906771 0.050000 0.000000
vt 1.133464 0.000000 0.000000
vt 1.133464 0.050000 0.000000
vt 1.360157 0.000000 0.000000
vt 1.360157 0.050000 0.000000
vt 1.586850 0.000000 0.000000
vt 1.586850 0.050000 0.000000
vt 1.813543 0.000000 0.000000
vt 1.813543 0.050000 0.000000
vt 2.266929 0.000000 0.000000
vt 2.266929 0.050000 0.000000
vt 2.720314 0.000000 0.000000
vt 2.720314 0.050000 0.000000
vt 3.173700 0.000000 0.000000
vt 3.173700 0.050000 0.000000
vt 3.627086 0.000000 0.000000
vt 3.627086 0.050000 0.000000
vt 4.080472 0.000000 0.000000
vt 4.080472 0.050000 0.000000
vt 4.533857 0.000000 0.000000
vt 4.533857 0.050000 0.000000
vt 4.987243 0.000000 0.000000
vt 4.987243 0.050000 0.000000
vt 5.440629 0.000000 0.000000
vt 5.440629 0.050000 0.000000
vt 5.894014 0.000000 0.000000
vt 5.894014 0.050000 0.000000
vt 6.347400 0.000000 0.000000
vt 6.347400 0.050000 0.000000
vt 6.800786 0.000000 0.000000
vt 6.800786 0.050000 0.000000
vt 7.254172 0.000000 0.000000
vt 7.254172 0.050000 0.000000
vt 0.000000 0.000000 0.000000
vt 0.921954 0.000000 0.000000
vt 0.000000 0.050000 0.000000
vt 0.921954 0.050000 0.000000
vt 1.525782 -2.120732 0.000000
vt 2.425782 -1.920732 0.000000
vt 1.509591 -2.032080 0.000000
vt 1.482283 -1.935873 0.000000
vt 2.455441 -1.807197 0.000000
vt 1.443808 -1.832091 0.000000
vt 2.467789 -1.688445 0.000000
vt 2.462866 -1.564441 0.000000
vt 1.394107 -1.720732 0.000000
vt 2.440889 -1.435124 0.000000
vt 2.402391 -1.300414 0.000000
vt 1.333142 -1.601842 0.000000
vt 2.348333 -1.160216 0.000000
vt 1.260922 -1.475544 0.000000
vt 2.280069 -1.014456 0.000000
vt 2.199176 -0.863140 0.000000
vt 1.083139 -1.201798 0.000000
vt 2.005807 -0.544662 0.000000
vt 0.862831 -0.903246 0.000000
vt 1.778323 -0.208940 0.000000
vt 0.604527 -0.586740 0.000000
vt 1.520260 0.135068 0.000000
vt 0.314994 -0.261928 0.000000
vt 1.230024 0.474960 0.000000
vt 0.002393 0.059799 0.000000
vt 0.905522 0.797789 0.000000
vt 0.548957 1.093005 0.000000
vt -0.324543 0.366368 0.000000
vt 0.169481 1.354341 0.000000
vt -0.657278 0.646092 0.000000
vt -0.219123 1.579227 0.000000
vt -0.988215 0.888752 0.000000
vt -0.602440 1.767427 0.000000
vt -1.311444 1.086775 0.000000
vt -0.969324 1.919785 0.000000
vt -1.623148 1.235843 0.000000
vt -1.313897 2.037302 0.000000
vt -1.773988 1.291418 0.000000
vt -1.634174 2.120732 0.000000
vt -1.921290 1.334265 0.000000
vt -2.064981 1.364407 0.000000
vt -2.205033 1.381907 0.000000
vt -2.474218 1.379268 0.000000
vt -1.525782 -2.120732 0.000000
vt -1.509591 -2.032080 0.000000
vt -2.425782 -1.920732 0.000000
vt -1.482283 -1.935873 0.000000
vt -2.455441 -1.807197 0.000000
vt -1.443808 -1.832091 0.000000
vt -2.467789 -1.688445 0.000000
vt -2.462866 -1.564441 0.000000
vt -1.394107 -1.720732 0.000000
vt -2.440889 -1.435124 0.000000
vt -2.402391 -1.300414 0.000000
vt -1.333142 -1.601842 0.000000
vt -2.348333 -1.160216 0.000000
vt -1.260922 -1.475544 0.000000
vt -2.280069 -1.014456 0.000000
vt -2.199176 -0.863140 0.000000
vt -1.083139 -1.201798 0.000000
vt -2.005807 -0.544662 0.000000
vt -0.862831 -0.903246 0.000000
vt -1.778323 -0.208940 0.000000
vt -0.604527 -0.586740 0.000000
vt -1.520260 0.135068 0.000000
vt -0.314994 -0.261928 0.000000
vt -1.230024 0.474960 0.000000
vt -0.002393 0.059799 0.000000
vt -0.905522 0.797789 0.000000
vt -0.548957 1.093005 0.000000
vt 0.324543 0.366368 0.000000
vt -0.169481 1.354341 0.000000
vt 0.657278 0.646092 0.000000
vt 0.219123 1.579227 0.000000
vt 0.988215 0.888752 0.000000
vt 0.602440 1.767427 0.000000
vt 1.311444 1.086775 0.000000
vt 0.969324 1.919785 0.000000
vt 1.623148 1.235843 0.000000
vt 1.313897 2.037302 0.000000
vt 1.773988 1.291418 0.000000
vt 1.634174 2.120732 0.000000
vt 1.921290 1.334265 0.000000
vt 2.064981 1.364407 0.000000
vt 2.205033 1.381907 0.000000
vt 2.474218 1.379268 0.000000
vn 0.010489 -0.099448 0.000000
vn -0.008079 -0.099673 0.000000
vn 0.010489 -0.099448 0.000000
vn -0.008079 -0.099673 0.000000
vn -0.016550 -0.098621 0.000000
vn -0.016550 -0.098621 0.000000
vn -0.024323 -0.096997 0.000000
vn -0.024323 -0.096997 0.000000
vn -0.031345 -0.094960 0.000000
vn -0.031345 -0.094960 0.000000
vn -0.037611 -0.092657 0.000000
vn -0.037611 -0.092657 0.000000
vn -0.048011 -0.087721 0.000000
vn -0.048011 -0.087721 0.000000
vn -0.055947 -0.082885 0.000000
vn -0.055947 -0.082885 0.000000
vn -0.061940 -0.078508 0.000000
vn -0.061940 -0.078508 0.000000
vn -0.066512 -0.074673 0.000000
vn -0.066512 -0.074673 0.000000
vn -0.070146 -0.071271 0.000000
vn -0.070146 -0.071271 0.000000
vn -0.073226 -0.068102 0.000000
vn -0.073226 -0.068102 0.000000
vn -0.076065 -0.064917 0.000000
vn -0.076065 -0.064917 0.000000
vn -0.078936 -0.061392 0.000000
vn -0.078936 -0.061392 0.000000
vn -0.082102 -0.057090 0.000000
vn -0.082102 -0.057090 0.000000
vn -0.085787 -0.051386 0.000000
vn -0.085787 -0.051386 0.000000
vn -0.087876 -0.047727 0.000000
vn -0.087876 -0.047727 0.000000
vn -0.090133 -0.043313 0.000000
vn -0.090133 -0.043313 0.000000
vn -0.092533 -0.037916 0.000000
vn -0.092533 -0.037916 0.000000
vn -0.094995 -0.031239 0.000000
vn -0.094995 -0.031239 0.000000
vn -0.097343 -0.022899 0.000000
vn -0.097343 -0.022899 0.000000
vn -0.099223 -0.012441 0.000000
vn -0.099223 -0.012441 0.000000
vn -0.066175 0.074973 0.000000
vn -0.066175 0.074973 0.000000
vn -0.066175 0.074973 0.000000
vn -0.066175 0.074973 0.000000
vn 0.094523 -0.032642 0.000000
vn 0.098403 -0.017798 0.000000
vn 0.094523 -0.032642 0.000000
vn 0.098403 -0.017798 0.000000
vn 0.099954 -0.003043 0.000000
vn 0.099954 -0.003043 0.000000
vn 0.099436 0.010605 0.000000
vn 0.099436 0.010605 0.000000
vn 0.097455 0.022416 0.000000
vn 0.097455 0.022416 0.000000
vn 0.094731 0.032033 0.000000
vn 0.094731 0.032033 0.000000
vn 0.091882 0.039467 0.000000
vn 0.091882 0.039467 0.000000
vn 0.089304 0.044998 0.000000
vn 0.089304 0.044998 0.000000
vn 0.087156 0.049029 0.000000
vn 0.087156 0.049029 0.000000
vn 0.084041 0.054195 0.000000
vn 0.084041 0.054195 0.000000
vn 0.081520 0.057917 0.000000
vn 0.081520 0.057917 0.000000
vn 0.078269 0.062241 0.000000
vn 0.078269 0.062241 0.000000
vn 0.073540 0.067763 0.000000
vn 0.073540 0.067763 0.000000
vn 0.067268 0.073993 0.000000
vn 0.067268 0.073993 0.000000
vn 0.060196 0.079853 0.000000
vn 0.060196 0.079853 0.000000
vn 0.053271 0.084630 0.000000
vn 0.053271 0.084630 0.000000
vn 0.046953 0.088291 0.000000
vn 0.046953 0.088291 0.000000
vn 0.041172 0.091131 0.000000
vn 0.041172 0.091131 0.000000
vn 0.035381 0.093532 0.000000
vn 0.035381 0.093532 0.000000
vn 0.028898 0.095734 0.000000
vn 0.028898 0.095734 0.000000
vn 0.021114 0.097746 0.000000
vn 0.021114 0.097746 0.000000
vn 0.021693 -0.097619 0.000000
vn 0.021693 -0.097619 0.000000
vn 0.021693 -0.097619 0.000000
vn 0.021693 -0.097619 0.000000
vn 0.000000 0.000000 0.100000
vn 0.000000 0.000000 0.100000
vn 0.000000 0.000000 0.100000
vn 0.000000 0.000000 0.100000
vn 0.000000 0.000000 0.100000
vn 0.000000 0.000000 0.100000
vn 0.000000 0.000000 0.100000
vn 0.000000 0.000000 0.100000
vn 0.000000 0.000000 0.100000
vn 0.000000 0.000000 0.100000
vn 0.000000 0.000000 0.100000
vn 0.000000 0.000000 0.100000
vn 0.000000 0.000000 0.100000
vn 0.000000 0.000000 0.100000
vn 0.000000 0.000000 0.100000
vn 0.000000 0.000000 0.100000
vn 0.000000 0.000000 0.100000
vn 0.000000 0.000000 0.100000
vn 0.000000 0.000000 0.100000
vn 0.000000 0.000000 0.100000
vn 0.000000 0.000000 0.100000
vn 0.000000 0.000000 0.100000
vn 0.000000 0.000000 0.100000
vn 0.000000 0.000000 0.100000
vn 0.000000 0.000000 0.100000
vn 0.000000 0.000000 0.100000
vn 0.000000 0.000000 0.100000
vn 0.000000 0.000000 0.100000
vn 0.000000 0.000000 0.100000
vn 0.000000 0.000000 0.100000
vn 0.000000 0.000000 0.100000
vn 0.000000 0.000000 0.100000
vn 0.000000 0.000000 0.100000
vn 0.000000 0.000000 0.100000
vn 0.000000 0.000000 0.100000
vn 0.000000 0.000000 0.100000
vn 0.000000 0.000000 0.100000
vn 0.000000 0.000000 0.100000
vn 0.000000 0.000000 0.100000
vn 0.000000 0.000000 0.100000
vn 0.000000 0.000000 0.100000
vn 0.000000 0.000000 0.100000
vn 0.000000 0.000000 0.100000
vn 0.000000 0.000000 -0.100000
vn 0.000000 0.000000 -0.100000
vn 0.000000 0.000000 -0.100000
vn 0.000000 0.000000 -0.100000
vn 0.000000 0.000000 -0.100000
vn 0.000000 0.000000 -0.100000
vn 0.000000 0.000000 -0.100000
vn 0.000000 0.000000 -0.100000
vn 0.000000 0.000000 -0.100000
vn 0.000000 0.000000 -0.100000
vn 0.000000 0.000000 -0.100000
vn 0.000000 0.000000 -0.100000
vn 0.000000 0.000000 -0.100000
vn 0.000000 0.000000 -0.100000
vn 0.000000 0.000000 -0.100000
vn 0.000000 0.000000 -0.100000
vn 0.000000 0.000000 -0.100000
vn 0.000000 0.000000 -0.100000
vn 0.000000 0.000000 -0.100000
vn 0.000000 0.000000 -0.100000
vn 0.000000 0.000000 -0.100000
vn 0.000000 0.000000 -0.100000
vn 0.000000 0.000000 -0.100000
vn 0.000000 0.000000 -0.100000
vn 0.000000 0.000000 -0.100000
vn 0.000000 0.000000 -0.100000
vn 0.000000 0.000000 -0.100000
vn 0.000000 0.000000 -0.100000
vn 0.000000 0.000000 -0.100000
vn 0.000000 0.000000 -0.100000
vn 0.000000 0.000000 -0.100000
vn 0.000000 0.000000 -0.100000
vn 0.000000 0.000000 -0.100000
vn 0.000000 0.000000 -0.100000
vn 0.000000 0.000000 -0.100000
vn 0.000000 0.000000 -0.100000
vn 0.000000 0.000000 -0.100000
vn 0.000000 0.000000 -0.100000
vn 0.000000 0.000000 -0.100000
vn 0.000000 0.000000 -0.100000
vn 0.000000 0.000000 -0.100000
vn 0.000000 0.000000 -0.100000
vn 0.000000 0.000000 -0.100000
usemtl Water_-_Clear
f 1/1/1 2/2/2 44/3/3
f 44/3/3 2/2/2 43/4/4
f 43/4/4 2/2/2 3/5/5
f 43/4/4 3/5/5 42/6/6
f 42/6/6 3/5/5 4/7/7
f 42/6/6 4/7/7 41/8/8
f 41/8/8 4/7/7 5/9/9
f 41/8/8 5/9/9 40/10/10
f 40/10/10 5/9/9 6/11/11
f 40/10/10 6/11/11 39/12/12
f 39/12/12 6/11/11 7/13/13
f 39/12/12 7/13/13 38/14/14
f 38/14/14 7/13/13 8/15/15
f 38/14/14 8/15/15 37/16/16
f 37/16/16 8/15/15 9/17/17
f 37/16/16 9/17/17 36/18/18
f 36/18/18 9/17/17 10/19/19
f 36/18/18 10/19/19 35/20/20
f 35/20/20 10/19/19 11/21/21
f 35/20/20 11/21/21 34/22/22
f 34/22/22 11/21/21 12/23/23
f 34/22/22 12/23/23 33/24/24
f 33/24/24 12/23/23 13/25/25
f 33/24/24 13/25/25 32/26/26
f 32/26/26 13/25/25 14/27/27
f 32/26/26 14/27/27 31/28/28
f 31/28/28 14/27/27 15/29/29
f 31/28/28 15/29/29 30/30/30
f 30/30/30 15/29/29 16/31/31
f 30/30/30 16/31/31 29/32/32
f 29/32/32 16/31/31 17/33/33
f 29/32/32 17/33/33 28/34/34
f 28/34/34 17/33/33 18/35/35
f 28/34/34 18/35/35 27/36/36
f 27/36/36 18/35/35 19/37/37
f 27/36/36 19/37/37 26/38/38
f 26/38/38 19/37/37 20/39/39
f 26/38/38 20/39/39 25/40/40
f 25/40/40 20/39/39 21/41/41
f 25/40/40 21/41/41 24/42/42
f 24/42/42 21/41/41 22/43/43
f 24/42/42 22/43/43 23/44/44
f 45/45/45 1/46/46 46/47/47
f 46/47/47 1/46/46 44/48/48
f 47/49/49 48/50/50 86/51/51
f 86/51/51 48/50/50 85/52/52
f 85/52/52 48/50/50 49/53/53
f 85/52/52 49/53/53 84/54/54
f 84/54/54 49/53/53 50/55/55
f 84/54/54 50/55/55 83/56/56
f 83/56/56 50/55/55 51/57/57
f 83/56/56 51/57/57 82/58/58
f 82/58/58 51/57/57 52/59/59
f 82/58/58 52/59/59 81/60/60
f 81/60/60 52/59/59 53/61/61
f 81/60/60 53/61/61 80/62/62
f 80/62/62 53/61/61 54/63/63
f 80/62/62 54/63/63 79/64/64
f 79/64/64 54/63/63 55/65/65
f 79/64/64 55/65/65 78/66/66
f 78/66/66 55/65/65 56/67/67
f 78/66/66 56/67/67 77/68/68
f 77/68/68 56/67/67 57/69/69
f 77/68/68 57/69/69 76/70/70
f 76/70/70 57/69/69 58/71/71
f 76/70/70 58/71/71 75/72/72
f 75/72/72 58/71/71 59/73/73
f 75/72/72 59/73/73 74/74/74
f 74/74/74 59/73/73 60/75/75
f 74/74/74 60/75/75 73/76/76
f 73/76/76 60/75/75 61/77/77
f 73/76/76 61/77/77 72/78/78
f 72/78/78 61/77/77 62/79/79
f 72/78/78 62/79/79 71/80/80
f 71/80/80 62/79/79 63/81/81
f 71/80/80 63/81/81 70/82/82
f 70/82/82 63/81/81 64/83/83
f 70/82/82 64/83/83 69/84/84
f 69/84/84 64/83/83 65/85/85
f 69/84/84 65/85/85 68/86/86
f 68/86/86 65/85/85 66/87/87
f 68/86/86 66/87/87 67/88/88
f 67/88/88 66/87/87 45/89/89
f 67/88/88 45/89/89 46/90/90
f 22/91/91 47/92/92 23/93/93
f 23/93/93 47/92/92 86/94/94
f 23/95/95 86/96/96 24/97/97
f 24/97/97 86/96/96 25/98/98
f 25/98/98 86/96/96 85/99/99
f 25/98/98 85/99/99 26/100/100
f 26/100/100 85/99/99 84/101/101
f 26/100/100 84/101/101 83/102/102
f 26/100/100 83/102/102 27/103/103
f 27/103/103 83/102/102 82/104/104
f 27/103/103 82/104/104 81/105/105
f 27/103/103 81/105/105 28/106/106
f 28/106/106 81/105/105 80/107/107
f 28/106/106 80/107/107 29/108/108
f 29/108/108 80/107/107 79/109/109
f 29/108/108 79/109/109 78/110/110
f 29/108/108 78/110/110 30/111/111
f 30/111/111 78/110/110 77/112/112
f 30/111/111 77/112/112 31/113/113
f 31/113/113 77/112/112 76/114/114
f 31/113/113 76/114/114 32/115/115
f 32/115/115 76/114/114 75/116/116
f 32/115/115 75/116/116 33/117/117
f 33/117/117 75/116/116 74/118/118
f 33/117/117 74/118/118 34/119/119
f 34/119/119 74/118/118 73/120/120
f 34/119/119 73/120/120 72/121/121
f 34/119/119 72/121/121 35/122/122
f 35/122/122 72/121/121 71/123/123
f 35/122/122 71/123/123 36/124/124
f 36/124/124 71/123/123 70/125/125
f 36/124/124 70/125/125 37/126/126
f 37/126/126 70/125/125 69/127/127
f 37/126/126 69/127/127 38/128/128
f 38/128/128 69/127/127 68/129/129
f 38/128/128 68/129/129 39/130/130
f 39/130/130 68/129/129 67/131/131
f 39/130/130 67/131/131 40/132/132
f 40/132/132 67/131/131 46/133/133
f 40/132/132 46/133/133 41/134/134
f 41/134/134 46/133/133 42/135/135
f 42/135/135 46/133/133 43/136/136
f 43/136/136 46/133/133 44/137/137
f 22/138/138 21/139/139 47/140/140
f 47/140/140 21/139/139 20/141/141
f 47/140/140 20/141/141 48/142/142
f 48/142/142 20/141/141 19/143/143
f 48/142/142 19/143/143 49/144/144
f 49/144/144 19/143/143 50/145/145
f 50/145/145 19/143/143 18/146/146
f 50/145/145 18/146/146 51/147/147
f 51/147/147 18/146/146 52/148/148
f 52/148/148 18/146/146 17/149/149
f 52/148/148 17/149/149 53/150/150
f 53/150/150 17/149/149 16/151/151
f 53/150/150 16/151/151 54/152/152
f 54/152/152 16/151/151 55/153/153
f 55/153/153 16/151/151 15/154/154
f 55/153/153 15/154/154 56/155/155
f 56/155/155 15/154/154 14/156/156
f 56/155/155 14/156/156 57/157/157
f 57/157/157 14/156/156 13/158/158
f 57/157/157 13/158/158 58/159/159
f 58/159/159 13/158/158 12/160/160
f 58/159/159 12/160/160 59/161/161
f 59/161/161 12/160/160 11/162/162
f 59/161/161 11/162/162 60/163/163
f 60/163/163 11/162/162 61/164/164
f 61/164/164 11/162/162 10/165/165
f 61/164/164 10/165/165 62/166/166
f 62/166/166 10/165/165 9/167/167
f 62/166/166 9/167/167 63/168/168
f 63/168/168 9/167/167 8/169/169
f 63/168/168 8/169/169 64/170/170
f 64/170/170 8/169/169 7/171/171
f 64/170/170 7/171/171 65/172/172
f 65/172/172 7/171/171 6/173/173
f 65/172/172 6/173/173 66/174/174
f 66/174/174 6/173/173 5/175/175
f 66/174/174 5/175/175 45/176/176
f 45/176/176 5/175/175 4/177/177
f 45/176/176 4/177/177 3/178/178
f 3/178/178 2/179/179 45/176/176
f 45/176/176 2/179/179 1/180/180
# 86 vertices
# 180 texture params
# 180 normals
# 168 facets

# 2 groups
